<mxfile host="app.diagrams.net" modified="2023-12-17T09:44:35.147Z" agent="Mozilla/5.0 (Windows NT 10.0; Win64; x64) AppleWebKit/537.36 (KHTML, like Gecko) Chrome/119.0.0.0 Safari/537.36 OPR/105.0.0.0 (Edition Yx GX)" etag="Hqc7Z6gf9MDEDk_qltyj" version="22.1.11" type="github">
  <diagram id="C5RBs43oDa-KdzZeNtuy" name="Page-1">
    <mxGraphModel dx="1696" dy="2622" grid="1" gridSize="10" guides="1" tooltips="1" connect="1" arrows="1" fold="1" page="1" pageScale="1" pageWidth="827" pageHeight="1169" math="0" shadow="0">
      <root>
        <mxCell id="WIyWlLk6GJQsqaUBKTNV-0" />
        <mxCell id="WIyWlLk6GJQsqaUBKTNV-1" parent="WIyWlLk6GJQsqaUBKTNV-0" />
        <mxCell id="WRFq4QSxpUMBXCPQDYhr-0" value="" style="edgeStyle=orthogonalEdgeStyle;rounded=0;orthogonalLoop=1;jettySize=auto;html=1;" edge="1" parent="WIyWlLk6GJQsqaUBKTNV-1" source="WRFq4QSxpUMBXCPQDYhr-1">
          <mxGeometry relative="1" as="geometry">
            <mxPoint x="1203.18" y="-382" as="targetPoint" />
          </mxGeometry>
        </mxCell>
        <mxCell id="WRFq4QSxpUMBXCPQDYhr-1" value="&lt;p style=&quot;line-height: 110%;&quot;&gt;&lt;span style=&quot;font-size: 18px;&quot;&gt;create&lt;/span&gt;&lt;/p&gt;&lt;p style=&quot;line-height: 110%;&quot;&gt;&lt;span style=&quot;font-size: 18px;&quot;&gt;list&lt;/span&gt;&lt;/p&gt;" style="ellipse;whiteSpace=wrap;html=1;" vertex="1" parent="WIyWlLk6GJQsqaUBKTNV-1">
          <mxGeometry x="1148.18" y="-482" width="110" height="60" as="geometry" />
        </mxCell>
        <mxCell id="WRFq4QSxpUMBXCPQDYhr-3" style="edgeStyle=orthogonalEdgeStyle;rounded=0;orthogonalLoop=1;jettySize=auto;html=1;exitX=0.5;exitY=1;exitDx=0;exitDy=0;entryX=0.5;entryY=0;entryDx=0;entryDy=0;" edge="1" parent="WIyWlLk6GJQsqaUBKTNV-1" source="WRFq4QSxpUMBXCPQDYhr-2" target="WRFq4QSxpUMBXCPQDYhr-4">
          <mxGeometry relative="1" as="geometry">
            <mxPoint x="1202.18" y="-270" as="targetPoint" />
          </mxGeometry>
        </mxCell>
        <mxCell id="WRFq4QSxpUMBXCPQDYhr-2" value="&lt;span style=&quot;font-size: 25px;&quot;&gt;Ввод&lt;br&gt;data, next&lt;br&gt;&lt;/span&gt;" style="shape=parallelogram;perimeter=parallelogramPerimeter;whiteSpace=wrap;html=1;fixedSize=1;" vertex="1" parent="WIyWlLk6GJQsqaUBKTNV-1">
          <mxGeometry x="1127" y="-381" width="150" height="60" as="geometry" />
        </mxCell>
        <mxCell id="WRFq4QSxpUMBXCPQDYhr-5" style="edgeStyle=orthogonalEdgeStyle;rounded=0;orthogonalLoop=1;jettySize=auto;html=1;exitX=0.5;exitY=1;exitDx=0;exitDy=0;entryX=0.5;entryY=0;entryDx=0;entryDy=0;" edge="1" parent="WIyWlLk6GJQsqaUBKTNV-1" source="WRFq4QSxpUMBXCPQDYhr-4" target="WRFq4QSxpUMBXCPQDYhr-6">
          <mxGeometry relative="1" as="geometry">
            <mxPoint x="1201.68" y="-180" as="targetPoint" />
          </mxGeometry>
        </mxCell>
        <mxCell id="WRFq4QSxpUMBXCPQDYhr-4" value="list = malloc(list_t)" style="rounded=0;whiteSpace=wrap;html=1;fontSize=20;" vertex="1" parent="WIyWlLk6GJQsqaUBKTNV-1">
          <mxGeometry x="1090" y="-270" width="224" height="51" as="geometry" />
        </mxCell>
        <mxCell id="WRFq4QSxpUMBXCPQDYhr-6" value="head = malloc(node_t)" style="rounded=0;whiteSpace=wrap;html=1;fontSize=20;" vertex="1" parent="WIyWlLk6GJQsqaUBKTNV-1">
          <mxGeometry x="1090" y="-170" width="224" height="51" as="geometry" />
        </mxCell>
        <mxCell id="WRFq4QSxpUMBXCPQDYhr-7" style="edgeStyle=orthogonalEdgeStyle;rounded=0;orthogonalLoop=1;jettySize=auto;html=1;exitX=0.5;exitY=1;exitDx=0;exitDy=0;entryX=0.5;entryY=0;entryDx=0;entryDy=0;" edge="1" parent="WIyWlLk6GJQsqaUBKTNV-1" target="WRFq4QSxpUMBXCPQDYhr-8" source="WRFq4QSxpUMBXCPQDYhr-6">
          <mxGeometry relative="1" as="geometry">
            <mxPoint x="1201.68" y="-80" as="targetPoint" />
            <mxPoint x="1202.18" y="-119" as="sourcePoint" />
          </mxGeometry>
        </mxCell>
        <mxCell id="WRFq4QSxpUMBXCPQDYhr-8" value="list-&amp;gt;head = head" style="rounded=0;whiteSpace=wrap;html=1;fontSize=20;" vertex="1" parent="WIyWlLk6GJQsqaUBKTNV-1">
          <mxGeometry x="1090" y="-70" width="224" height="51" as="geometry" />
        </mxCell>
        <mxCell id="WRFq4QSxpUMBXCPQDYhr-9" style="edgeStyle=orthogonalEdgeStyle;rounded=0;orthogonalLoop=1;jettySize=auto;html=1;entryX=0.5;entryY=0;entryDx=0;entryDy=0;exitX=0.5;exitY=1;exitDx=0;exitDy=0;" edge="1" parent="WIyWlLk6GJQsqaUBKTNV-1" target="WRFq4QSxpUMBXCPQDYhr-10" source="WRFq4QSxpUMBXCPQDYhr-8">
          <mxGeometry relative="1" as="geometry">
            <mxPoint x="1201.68" y="19" as="targetPoint" />
            <mxPoint x="1203.18" y="-20" as="sourcePoint" />
          </mxGeometry>
        </mxCell>
        <mxCell id="WRFq4QSxpUMBXCPQDYhr-10" value="head-&amp;gt;data = data" style="rounded=0;whiteSpace=wrap;html=1;fontSize=20;" vertex="1" parent="WIyWlLk6GJQsqaUBKTNV-1">
          <mxGeometry x="1090" y="29" width="224" height="51" as="geometry" />
        </mxCell>
        <mxCell id="WRFq4QSxpUMBXCPQDYhr-11" style="edgeStyle=orthogonalEdgeStyle;rounded=0;orthogonalLoop=1;jettySize=auto;html=1;entryX=0.5;entryY=0;entryDx=0;entryDy=0;exitX=0.5;exitY=1;exitDx=0;exitDy=0;" edge="1" parent="WIyWlLk6GJQsqaUBKTNV-1" target="WRFq4QSxpUMBXCPQDYhr-12" source="WRFq4QSxpUMBXCPQDYhr-10">
          <mxGeometry relative="1" as="geometry">
            <mxPoint x="1201.68" y="118" as="targetPoint" />
            <mxPoint x="1203.18" y="80" as="sourcePoint" />
          </mxGeometry>
        </mxCell>
        <mxCell id="WRFq4QSxpUMBXCPQDYhr-13" style="edgeStyle=orthogonalEdgeStyle;rounded=0;orthogonalLoop=1;jettySize=auto;html=1;exitX=0.5;exitY=1;exitDx=0;exitDy=0;entryX=0.5;entryY=0;entryDx=0;entryDy=0;" edge="1" parent="WIyWlLk6GJQsqaUBKTNV-1" source="WRFq4QSxpUMBXCPQDYhr-12" target="WRFq4QSxpUMBXCPQDYhr-14">
          <mxGeometry relative="1" as="geometry">
            <mxPoint x="1201.68" y="230" as="targetPoint" />
          </mxGeometry>
        </mxCell>
        <mxCell id="WRFq4QSxpUMBXCPQDYhr-12" value="head-&amp;gt;next = NULL" style="rounded=0;whiteSpace=wrap;html=1;fontSize=20;" vertex="1" parent="WIyWlLk6GJQsqaUBKTNV-1">
          <mxGeometry x="1090" y="128" width="224" height="51" as="geometry" />
        </mxCell>
        <mxCell id="WRFq4QSxpUMBXCPQDYhr-14" value="&lt;span style=&quot;font-size: 25px;&quot;&gt;Вывод&lt;br&gt;list&lt;br&gt;&lt;/span&gt;" style="shape=parallelogram;perimeter=parallelogramPerimeter;whiteSpace=wrap;html=1;fixedSize=1;" vertex="1" parent="WIyWlLk6GJQsqaUBKTNV-1">
          <mxGeometry x="1127.18" y="230" width="150" height="60" as="geometry" />
        </mxCell>
        <mxCell id="WRFq4QSxpUMBXCPQDYhr-15" style="edgeStyle=orthogonalEdgeStyle;rounded=0;orthogonalLoop=1;jettySize=auto;html=1;exitX=0.5;exitY=1;exitDx=0;exitDy=0;entryX=0.5;entryY=0;entryDx=0;entryDy=0;" edge="1" parent="WIyWlLk6GJQsqaUBKTNV-1" target="WRFq4QSxpUMBXCPQDYhr-16" source="WRFq4QSxpUMBXCPQDYhr-14">
          <mxGeometry relative="1" as="geometry">
            <mxPoint x="1202" y="310" as="sourcePoint" />
          </mxGeometry>
        </mxCell>
        <mxCell id="WRFq4QSxpUMBXCPQDYhr-16" value="&lt;p style=&quot;line-height: 110%;&quot;&gt;&lt;span style=&quot;font-size: 18px;&quot;&gt;Конец&lt;/span&gt;&lt;/p&gt;" style="ellipse;whiteSpace=wrap;html=1;" vertex="1" parent="WIyWlLk6GJQsqaUBKTNV-1">
          <mxGeometry x="1147" y="340" width="110" height="60" as="geometry" />
        </mxCell>
        <mxCell id="WRFq4QSxpUMBXCPQDYhr-17" value="&lt;p style=&quot;line-height: 110%;&quot;&gt;&lt;span style=&quot;font-size: 18px;&quot;&gt;insert&lt;/span&gt;&lt;/p&gt;&lt;p style=&quot;line-height: 110%;&quot;&gt;&lt;span style=&quot;font-size: 18px;&quot;&gt;after&lt;/span&gt;&lt;/p&gt;" style="ellipse;whiteSpace=wrap;html=1;" vertex="1" parent="WIyWlLk6GJQsqaUBKTNV-1">
          <mxGeometry x="1647" y="-482" width="110" height="60" as="geometry" />
        </mxCell>
        <mxCell id="WRFq4QSxpUMBXCPQDYhr-18" value="" style="edgeStyle=orthogonalEdgeStyle;rounded=0;orthogonalLoop=1;jettySize=auto;html=1;entryX=0.5;entryY=0;entryDx=0;entryDy=0;exitX=0.5;exitY=1;exitDx=0;exitDy=0;" edge="1" parent="WIyWlLk6GJQsqaUBKTNV-1" source="WRFq4QSxpUMBXCPQDYhr-17" target="WRFq4QSxpUMBXCPQDYhr-20">
          <mxGeometry relative="1" as="geometry">
            <mxPoint x="1703.18" y="-382" as="targetPoint" />
            <mxPoint x="1703.18" y="-422" as="sourcePoint" />
          </mxGeometry>
        </mxCell>
        <mxCell id="WRFq4QSxpUMBXCPQDYhr-19" style="edgeStyle=orthogonalEdgeStyle;rounded=0;orthogonalLoop=1;jettySize=auto;html=1;exitX=0.5;exitY=1;exitDx=0;exitDy=0;entryX=0.5;entryY=0;entryDx=0;entryDy=0;" edge="1" parent="WIyWlLk6GJQsqaUBKTNV-1" source="WRFq4QSxpUMBXCPQDYhr-20">
          <mxGeometry relative="1" as="geometry">
            <mxPoint x="1702.18" y="-270" as="targetPoint" />
          </mxGeometry>
        </mxCell>
        <mxCell id="WRFq4QSxpUMBXCPQDYhr-20" value="&lt;span style=&quot;font-size: 25px;&quot;&gt;Ввод&lt;br&gt;after, data&lt;br&gt;&lt;/span&gt;" style="shape=parallelogram;perimeter=parallelogramPerimeter;whiteSpace=wrap;html=1;fixedSize=1;" vertex="1" parent="WIyWlLk6GJQsqaUBKTNV-1">
          <mxGeometry x="1627" y="-381" width="150" height="60" as="geometry" />
        </mxCell>
        <mxCell id="WRFq4QSxpUMBXCPQDYhr-21" value="node = malloc(node_t)" style="rounded=0;whiteSpace=wrap;html=1;fontSize=20;" vertex="1" parent="WIyWlLk6GJQsqaUBKTNV-1">
          <mxGeometry x="1590" y="-270" width="224" height="51" as="geometry" />
        </mxCell>
        <mxCell id="WRFq4QSxpUMBXCPQDYhr-22" style="edgeStyle=orthogonalEdgeStyle;rounded=0;orthogonalLoop=1;jettySize=auto;html=1;exitX=0.5;exitY=1;exitDx=0;exitDy=0;entryX=0.5;entryY=0;entryDx=0;entryDy=0;" edge="1" parent="WIyWlLk6GJQsqaUBKTNV-1" source="WRFq4QSxpUMBXCPQDYhr-21">
          <mxGeometry relative="1" as="geometry">
            <mxPoint x="1702.18" y="-170" as="targetPoint" />
            <mxPoint x="1702" y="-221" as="sourcePoint" />
          </mxGeometry>
        </mxCell>
        <mxCell id="WRFq4QSxpUMBXCPQDYhr-23" value="node-&amp;gt;data = data" style="rounded=0;whiteSpace=wrap;html=1;fontSize=20;" vertex="1" parent="WIyWlLk6GJQsqaUBKTNV-1">
          <mxGeometry x="1590" y="-170" width="224" height="51" as="geometry" />
        </mxCell>
        <mxCell id="WRFq4QSxpUMBXCPQDYhr-24" style="edgeStyle=orthogonalEdgeStyle;rounded=0;orthogonalLoop=1;jettySize=auto;html=1;exitX=0.5;exitY=1;exitDx=0;exitDy=0;entryX=0.5;entryY=0;entryDx=0;entryDy=0;" edge="1" parent="WIyWlLk6GJQsqaUBKTNV-1" source="WRFq4QSxpUMBXCPQDYhr-23" target="WRFq4QSxpUMBXCPQDYhr-25">
          <mxGeometry relative="1" as="geometry">
            <mxPoint x="1712.18" y="-22" as="targetPoint" />
            <mxPoint x="1712" y="-71" as="sourcePoint" />
          </mxGeometry>
        </mxCell>
        <mxCell id="WRFq4QSxpUMBXCPQDYhr-35" style="edgeStyle=orthogonalEdgeStyle;rounded=0;orthogonalLoop=1;jettySize=auto;html=1;exitX=0.5;exitY=1;exitDx=0;exitDy=0;" edge="1" parent="WIyWlLk6GJQsqaUBKTNV-1" source="WRFq4QSxpUMBXCPQDYhr-25">
          <mxGeometry relative="1" as="geometry">
            <mxPoint x="1702" y="30" as="targetPoint" />
          </mxGeometry>
        </mxCell>
        <mxCell id="WRFq4QSxpUMBXCPQDYhr-25" value="node-&amp;gt;next = NULL" style="rounded=0;whiteSpace=wrap;html=1;fontSize=20;" vertex="1" parent="WIyWlLk6GJQsqaUBKTNV-1">
          <mxGeometry x="1590" y="-70" width="224" height="51" as="geometry" />
        </mxCell>
        <mxCell id="WRFq4QSxpUMBXCPQDYhr-40" style="edgeStyle=orthogonalEdgeStyle;rounded=0;orthogonalLoop=1;jettySize=auto;html=1;exitX=0;exitY=0.5;exitDx=0;exitDy=0;entryX=0.5;entryY=0;entryDx=0;entryDy=0;" edge="1" parent="WIyWlLk6GJQsqaUBKTNV-1" source="WRFq4QSxpUMBXCPQDYhr-36" target="WRFq4QSxpUMBXCPQDYhr-41">
          <mxGeometry relative="1" as="geometry">
            <mxPoint x="1500" y="250" as="targetPoint" />
          </mxGeometry>
        </mxCell>
        <mxCell id="WRFq4QSxpUMBXCPQDYhr-46" style="edgeStyle=orthogonalEdgeStyle;rounded=0;orthogonalLoop=1;jettySize=auto;html=1;exitX=1;exitY=0.5;exitDx=0;exitDy=0;entryX=0.5;entryY=0;entryDx=0;entryDy=0;" edge="1" parent="WIyWlLk6GJQsqaUBKTNV-1" source="WRFq4QSxpUMBXCPQDYhr-36" target="WRFq4QSxpUMBXCPQDYhr-48">
          <mxGeometry relative="1" as="geometry">
            <mxPoint x="1910" y="220" as="targetPoint" />
          </mxGeometry>
        </mxCell>
        <mxCell id="WRFq4QSxpUMBXCPQDYhr-36" value="&lt;span style=&quot;font-size: 20px;&quot;&gt;after-&amp;gt;next == NULL&lt;/span&gt;" style="rhombus;whiteSpace=wrap;html=1;" vertex="1" parent="WIyWlLk6GJQsqaUBKTNV-1">
          <mxGeometry x="1587.65" y="29" width="228.7" height="100" as="geometry" />
        </mxCell>
        <mxCell id="WRFq4QSxpUMBXCPQDYhr-39" value="&lt;font style=&quot;font-size: 23px;&quot;&gt;Да&lt;/font&gt;" style="edgeLabel;html=1;align=center;verticalAlign=middle;resizable=0;points=[];" vertex="1" connectable="0" parent="WIyWlLk6GJQsqaUBKTNV-1">
          <mxGeometry x="1546.0014285714287" y="77.00000000000023" as="geometry" />
        </mxCell>
        <mxCell id="WRFq4QSxpUMBXCPQDYhr-42" style="edgeStyle=orthogonalEdgeStyle;rounded=0;orthogonalLoop=1;jettySize=auto;html=1;exitX=0.5;exitY=1;exitDx=0;exitDy=0;entryX=0.5;entryY=0;entryDx=0;entryDy=0;" edge="1" parent="WIyWlLk6GJQsqaUBKTNV-1" source="WRFq4QSxpUMBXCPQDYhr-41" target="WRFq4QSxpUMBXCPQDYhr-43">
          <mxGeometry relative="1" as="geometry">
            <mxPoint x="1502" y="350" as="targetPoint" />
          </mxGeometry>
        </mxCell>
        <mxCell id="WRFq4QSxpUMBXCPQDYhr-41" value="after-&amp;gt;next = node" style="rounded=0;whiteSpace=wrap;html=1;fontSize=20;" vertex="1" parent="WIyWlLk6GJQsqaUBKTNV-1">
          <mxGeometry x="1390" y="234.5" width="224" height="51" as="geometry" />
        </mxCell>
        <mxCell id="WRFq4QSxpUMBXCPQDYhr-43" value="&lt;p style=&quot;line-height: 110%;&quot;&gt;&lt;span style=&quot;font-size: 18px;&quot;&gt;Конец&lt;/span&gt;&lt;/p&gt;" style="ellipse;whiteSpace=wrap;html=1;" vertex="1" parent="WIyWlLk6GJQsqaUBKTNV-1">
          <mxGeometry x="1447" y="340" width="110" height="60" as="geometry" />
        </mxCell>
        <mxCell id="WRFq4QSxpUMBXCPQDYhr-50" style="edgeStyle=orthogonalEdgeStyle;rounded=0;orthogonalLoop=1;jettySize=auto;html=1;exitX=0.5;exitY=1;exitDx=0;exitDy=0;entryX=0.5;entryY=0;entryDx=0;entryDy=0;" edge="1" parent="WIyWlLk6GJQsqaUBKTNV-1" source="WRFq4QSxpUMBXCPQDYhr-48" target="WRFq4QSxpUMBXCPQDYhr-49">
          <mxGeometry relative="1" as="geometry" />
        </mxCell>
        <mxCell id="WRFq4QSxpUMBXCPQDYhr-48" value="next = after-&amp;gt;next" style="rounded=0;whiteSpace=wrap;html=1;fontSize=20;" vertex="1" parent="WIyWlLk6GJQsqaUBKTNV-1">
          <mxGeometry x="1790" y="234.5" width="224" height="51" as="geometry" />
        </mxCell>
        <mxCell id="WRFq4QSxpUMBXCPQDYhr-51" style="edgeStyle=orthogonalEdgeStyle;rounded=0;orthogonalLoop=1;jettySize=auto;html=1;exitX=0.5;exitY=1;exitDx=0;exitDy=0;entryX=0.5;entryY=0;entryDx=0;entryDy=0;" edge="1" parent="WIyWlLk6GJQsqaUBKTNV-1" source="WRFq4QSxpUMBXCPQDYhr-49" target="WRFq4QSxpUMBXCPQDYhr-52">
          <mxGeometry relative="1" as="geometry">
            <mxPoint x="1902.4" y="450" as="targetPoint" />
          </mxGeometry>
        </mxCell>
        <mxCell id="WRFq4QSxpUMBXCPQDYhr-49" value="after-&amp;gt;next = node" style="rounded=0;whiteSpace=wrap;html=1;fontSize=20;" vertex="1" parent="WIyWlLk6GJQsqaUBKTNV-1">
          <mxGeometry x="1790" y="344.5" width="224" height="51" as="geometry" />
        </mxCell>
        <mxCell id="WRFq4QSxpUMBXCPQDYhr-52" value="node-&amp;gt;next = next" style="rounded=0;whiteSpace=wrap;html=1;fontSize=20;" vertex="1" parent="WIyWlLk6GJQsqaUBKTNV-1">
          <mxGeometry x="1790" y="460" width="224" height="51" as="geometry" />
        </mxCell>
        <mxCell id="WRFq4QSxpUMBXCPQDYhr-53" style="edgeStyle=orthogonalEdgeStyle;rounded=0;orthogonalLoop=1;jettySize=auto;html=1;exitX=0.5;exitY=1;exitDx=0;exitDy=0;entryX=0.5;entryY=0;entryDx=0;entryDy=0;" edge="1" parent="WIyWlLk6GJQsqaUBKTNV-1" target="WRFq4QSxpUMBXCPQDYhr-54" source="WRFq4QSxpUMBXCPQDYhr-52">
          <mxGeometry relative="1" as="geometry">
            <mxPoint x="1895" y="614" as="targetPoint" />
            <mxPoint x="1895" y="550" as="sourcePoint" />
          </mxGeometry>
        </mxCell>
        <mxCell id="WRFq4QSxpUMBXCPQDYhr-54" value="&lt;p style=&quot;line-height: 110%;&quot;&gt;&lt;span style=&quot;font-size: 18px;&quot;&gt;Конец&lt;/span&gt;&lt;/p&gt;" style="ellipse;whiteSpace=wrap;html=1;" vertex="1" parent="WIyWlLk6GJQsqaUBKTNV-1">
          <mxGeometry x="1847" y="570" width="110" height="60" as="geometry" />
        </mxCell>
        <mxCell id="WRFq4QSxpUMBXCPQDYhr-55" value="" style="edgeStyle=orthogonalEdgeStyle;rounded=0;orthogonalLoop=1;jettySize=auto;html=1;" edge="1" parent="WIyWlLk6GJQsqaUBKTNV-1" source="WRFq4QSxpUMBXCPQDYhr-56">
          <mxGeometry relative="1" as="geometry">
            <mxPoint x="2293.1800000000003" y="-382" as="targetPoint" />
          </mxGeometry>
        </mxCell>
        <mxCell id="WRFq4QSxpUMBXCPQDYhr-56" value="&lt;p style=&quot;line-height: 110%;&quot;&gt;&lt;span style=&quot;font-size: 18px;&quot;&gt;output&lt;/span&gt;&lt;/p&gt;&lt;p style=&quot;line-height: 110%;&quot;&gt;&lt;span style=&quot;font-size: 18px;&quot;&gt;list&lt;/span&gt;&lt;/p&gt;" style="ellipse;whiteSpace=wrap;html=1;" vertex="1" parent="WIyWlLk6GJQsqaUBKTNV-1">
          <mxGeometry x="2238.1800000000003" y="-482" width="110" height="60" as="geometry" />
        </mxCell>
        <mxCell id="WRFq4QSxpUMBXCPQDYhr-57" style="edgeStyle=orthogonalEdgeStyle;rounded=0;orthogonalLoop=1;jettySize=auto;html=1;exitX=0.5;exitY=1;exitDx=0;exitDy=0;entryX=0.5;entryY=0;entryDx=0;entryDy=0;" edge="1" parent="WIyWlLk6GJQsqaUBKTNV-1" source="WRFq4QSxpUMBXCPQDYhr-58" target="WRFq4QSxpUMBXCPQDYhr-72">
          <mxGeometry relative="1" as="geometry">
            <mxPoint x="2292" y="-270" as="targetPoint" />
          </mxGeometry>
        </mxCell>
        <mxCell id="WRFq4QSxpUMBXCPQDYhr-58" value="&lt;span style=&quot;font-size: 25px;&quot;&gt;Ввод&lt;br&gt;list&lt;br&gt;&lt;/span&gt;" style="shape=parallelogram;perimeter=parallelogramPerimeter;whiteSpace=wrap;html=1;fixedSize=1;" vertex="1" parent="WIyWlLk6GJQsqaUBKTNV-1">
          <mxGeometry x="2217" y="-381" width="150" height="60" as="geometry" />
        </mxCell>
        <mxCell id="WRFq4QSxpUMBXCPQDYhr-73" style="edgeStyle=orthogonalEdgeStyle;rounded=0;orthogonalLoop=1;jettySize=auto;html=1;exitX=0.5;exitY=1;exitDx=0;exitDy=0;entryX=0.5;entryY=0;entryDx=0;entryDy=0;" edge="1" parent="WIyWlLk6GJQsqaUBKTNV-1" source="WRFq4QSxpUMBXCPQDYhr-72" target="WRFq4QSxpUMBXCPQDYhr-75">
          <mxGeometry relative="1" as="geometry">
            <mxPoint x="2291.764705882353" y="-170" as="targetPoint" />
          </mxGeometry>
        </mxCell>
        <mxCell id="WRFq4QSxpUMBXCPQDYhr-72" value="current = list-&amp;gt;head" style="rounded=0;whiteSpace=wrap;html=1;fontSize=20;" vertex="1" parent="WIyWlLk6GJQsqaUBKTNV-1">
          <mxGeometry x="2180" y="-270" width="224" height="51" as="geometry" />
        </mxCell>
        <mxCell id="WRFq4QSxpUMBXCPQDYhr-81" style="edgeStyle=orthogonalEdgeStyle;rounded=0;orthogonalLoop=1;jettySize=auto;html=1;exitX=1;exitY=0.5;exitDx=0;exitDy=0;entryX=0.5;entryY=0;entryDx=0;entryDy=0;" edge="1" parent="WIyWlLk6GJQsqaUBKTNV-1" source="WRFq4QSxpUMBXCPQDYhr-75" target="WRFq4QSxpUMBXCPQDYhr-78">
          <mxGeometry relative="1" as="geometry" />
        </mxCell>
        <mxCell id="WRFq4QSxpUMBXCPQDYhr-75" value="&lt;span style=&quot;font-size: 20px;&quot;&gt;current == NULL&lt;/span&gt;" style="rhombus;whiteSpace=wrap;html=1;" vertex="1" parent="WIyWlLk6GJQsqaUBKTNV-1">
          <mxGeometry x="2197" y="-96.75" width="190" height="104.5" as="geometry" />
        </mxCell>
        <mxCell id="WRFq4QSxpUMBXCPQDYhr-84" style="edgeStyle=orthogonalEdgeStyle;rounded=0;orthogonalLoop=1;jettySize=auto;html=1;exitX=0.5;exitY=1;exitDx=0;exitDy=0;" edge="1" parent="WIyWlLk6GJQsqaUBKTNV-1" source="WRFq4QSxpUMBXCPQDYhr-86">
          <mxGeometry relative="1" as="geometry">
            <mxPoint x="2292" y="-161" as="targetPoint" />
            <mxPoint x="2587" y="203.50000000000023" as="sourcePoint" />
            <Array as="points">
              <mxPoint x="2525" y="350" />
              <mxPoint x="2720" y="350" />
              <mxPoint x="2720" y="-161" />
            </Array>
          </mxGeometry>
        </mxCell>
        <mxCell id="WRFq4QSxpUMBXCPQDYhr-87" style="edgeStyle=orthogonalEdgeStyle;rounded=0;orthogonalLoop=1;jettySize=auto;html=1;exitX=0.5;exitY=1;exitDx=0;exitDy=0;entryX=0.5;entryY=0;entryDx=0;entryDy=0;" edge="1" parent="WIyWlLk6GJQsqaUBKTNV-1" source="WRFq4QSxpUMBXCPQDYhr-78" target="WRFq4QSxpUMBXCPQDYhr-86">
          <mxGeometry relative="1" as="geometry" />
        </mxCell>
        <mxCell id="WRFq4QSxpUMBXCPQDYhr-78" value="&lt;span style=&quot;font-size: 25px;&quot;&gt;Вывод&lt;br&gt;current-&amp;gt;data&lt;br&gt;&lt;/span&gt;" style="shape=parallelogram;perimeter=parallelogramPerimeter;whiteSpace=wrap;html=1;fixedSize=1;" vertex="1" parent="WIyWlLk6GJQsqaUBKTNV-1">
          <mxGeometry x="2430" y="47" width="190" height="60" as="geometry" />
        </mxCell>
        <mxCell id="WRFq4QSxpUMBXCPQDYhr-86" value="current = current-&amp;gt;next" style="rounded=0;whiteSpace=wrap;html=1;fontSize=20;" vertex="1" parent="WIyWlLk6GJQsqaUBKTNV-1">
          <mxGeometry x="2413" y="234.5" width="224" height="51" as="geometry" />
        </mxCell>
        <mxCell id="WRFq4QSxpUMBXCPQDYhr-89" value="" style="edgeStyle=orthogonalEdgeStyle;rounded=0;orthogonalLoop=1;jettySize=auto;html=1;exitX=0;exitY=0.5;exitDx=0;exitDy=0;entryX=0.5;entryY=0;entryDx=0;entryDy=0;" edge="1" parent="WIyWlLk6GJQsqaUBKTNV-1" source="WRFq4QSxpUMBXCPQDYhr-75" target="WRFq4QSxpUMBXCPQDYhr-88">
          <mxGeometry relative="1" as="geometry">
            <mxPoint x="2100" y="120" as="targetPoint" />
            <mxPoint x="2197" y="-44" as="sourcePoint" />
          </mxGeometry>
        </mxCell>
        <mxCell id="WRFq4QSxpUMBXCPQDYhr-88" value="&lt;p style=&quot;line-height: 110%;&quot;&gt;&lt;span style=&quot;font-size: 18px;&quot;&gt;Конец&lt;/span&gt;&lt;/p&gt;" style="ellipse;whiteSpace=wrap;html=1;" vertex="1" parent="WIyWlLk6GJQsqaUBKTNV-1">
          <mxGeometry x="2030" y="47" width="110" height="60" as="geometry" />
        </mxCell>
        <mxCell id="WRFq4QSxpUMBXCPQDYhr-82" value="&lt;font style=&quot;font-size: 23px;&quot;&gt;Да&lt;/font&gt;" style="edgeLabel;html=1;align=center;verticalAlign=middle;resizable=0;points=[];" vertex="1" connectable="0" parent="WIyWlLk6GJQsqaUBKTNV-1">
          <mxGeometry x="2150.0014285714287" y="-45.49999999999977" as="geometry" />
        </mxCell>
      </root>
    </mxGraphModel>
  </diagram>
</mxfile>
